<svg width="18" height="18" viewBox="0 0 18 18" fill="none" xmlns="http://www.w3.org/2000/svg">
<path d="M15.0469 7.10156C15.0469 6.88281 14.9766 6.70312 14.8359 6.5625L13.7695 5.50781C13.6211 5.35937 13.4453 5.28516 13.2422 5.28516C13.0391 5.28516 12.8633 5.35937 12.7148 5.50781L7.93359 10.2773L5.28516 7.62891C5.13672 7.48047 4.96094 7.40625 4.75781 7.40625C4.55469 7.40625 4.37891 7.48047 4.23047 7.62891L3.16406 8.68359C3.02344 8.82422 2.95312 9.00391 2.95312 9.22266C2.95312 9.43359 3.02344 9.60937 3.16406 9.75L7.40625 13.9922C7.55469 14.1406 7.73047 14.2148 7.93359 14.2148C8.14453 14.2148 8.32422 14.1406 8.47266 13.9922L14.8359 7.62891C14.9766 7.48828 15.0469 7.3125 15.0469 7.10156Z" fill="#43B888"/>
<path fill-rule="evenodd" clip-rule="evenodd" d="M18 9C18 10.6328 17.5977 12.1387 16.793 13.5176C15.9883 14.8965 14.8965 15.9883 13.5176 16.793C12.1387 17.5977 10.6328 18 9 18C7.36719 18 5.86133 17.5977 4.48242 16.793C3.10352 15.9883 2.01172 14.8965 1.20703 13.5176C0.402344 12.1387 0 10.6328 0 9C0 7.36719 0.402344 5.86133 1.20703 4.48242C2.01172 3.10352 3.10352 2.01172 4.48242 1.20703C5.86133 0.402344 7.36719 0 9 0C10.6328 0 12.1387 0.402344 13.5176 1.20703C14.8965 2.01172 15.9883 3.10352 16.793 4.48242C17.5977 5.86133 18 7.36719 18 9ZM14.8359 6.5625C14.9766 6.70312 15.0469 6.88281 15.0469 7.10156C15.0469 7.3125 14.9766 7.48828 14.8359 7.62891L8.47266 13.9922C8.32422 14.1406 8.14453 14.2148 7.93359 14.2148C7.73047 14.2148 7.55469 14.1406 7.40625 13.9922L3.16406 9.75C3.02344 9.60937 2.95312 9.43359 2.95312 9.22266C2.95312 9.00391 3.02344 8.82422 3.16406 8.68359L4.23047 7.62891C4.37891 7.48047 4.55469 7.40625 4.75781 7.40625C4.96094 7.40625 5.13672 7.48047 5.28516 7.62891L7.93359 10.2773L12.7148 5.50781C12.8633 5.35937 13.0391 5.28516 13.2422 5.28516C13.4453 5.28516 13.6211 5.35937 13.7695 5.50781L14.8359 6.5625Z" fill="white"/>
</svg>
